<svg xmlns="http://www.w3.org/2000/svg" width="288" height="58" viewBox="0 0 288 58">
  <g id="Logo" transform="translate(-142 -15)">
    <text id="TARGET_HIT" data-name="TARGET HIT" transform="translate(207 58)" fill="#ffdf40" stroke="#ffdf40" stroke-width="1" font-size="40" font-family="Poppins-Medium, Poppins" font-weight="500"><tspan x="0" y="0">TARGET HIT</tspan></text>
    <g id="Logo-2" data-name="Logo" transform="translate(27 8.5)">
      <g id="Rectangle_9" data-name="Rectangle 9" transform="translate(115 36.068) rotate(-45)" fill="#fff" stroke="#000" stroke-width="2">
        <rect width="40.401" height="38.795" stroke="none"/>
        <rect x="1" y="1" width="38.401" height="36.795" fill="none"/>
      </g>
      <g id="Rectangle_10" data-name="Rectangle 10" transform="translate(118.246 36.068) rotate(-45)" fill="#fff" stroke="#000" stroke-width="2">
        <rect width="35.81" height="34.433" stroke="none"/>
        <rect x="1" y="1" width="33.81" height="32.433" fill="none"/>
      </g>
      <g id="Rectangle_11" data-name="Rectangle 11" transform="translate(121.98 35.906) rotate(-45)" fill="#fff" stroke="#000" stroke-width="2">
        <rect width="30.531" height="29.383" stroke="none"/>
        <rect x="1" y="1" width="28.531" height="27.383" fill="none"/>
      </g>
      <g id="Rectangle_12" data-name="Rectangle 12" transform="translate(126.362 35.743) rotate(-45)" fill="#fff" stroke="#000" stroke-width="2">
        <rect width="24.103" height="23.185" stroke="none"/>
        <rect x="1" y="1" width="22.103" height="21.185" fill="none"/>
      </g>
      <g id="Rectangle_13" data-name="Rectangle 13" transform="translate(130.096 35.581) rotate(-45)" fill="#fff" stroke="#000" stroke-width="2">
        <rect width="18.823" height="18.135" stroke="none"/>
        <rect x="1" y="1" width="16.823" height="16.135" fill="none"/>
      </g>
      <g id="Rectangle_14" data-name="Rectangle 14" transform="translate(134.965 35.581) rotate(-45)" fill="#fff" stroke="red" stroke-width="2">
        <rect width="11.937" height="11.478" stroke="none"/>
        <rect x="1" y="1" width="9.937" height="9.478" fill="none"/>
      </g>
      <g id="Rectangle_15" data-name="Rectangle 15" transform="translate(139.186 35.581) rotate(-45)" fill="#fff" stroke="red" stroke-width="2">
        <rect width="5.968" height="5.739" stroke="none"/>
        <rect x="1" y="1" width="3.968" height="3.739" fill="none"/>
      </g>
    </g>
  </g>
</svg>
