<svg xmlns="http://www.w3.org/2000/svg" width="56" height="56" viewBox="0 0 56 56">
  <g id="MDI_account-circle" data-name="MDI / account-circle" style="isolation: isolate">
    <g id="Boundary" fill="#fff" stroke="rgba(0,0,0,0)" stroke-width="1" opacity="0">
      <rect width="56" height="56" stroke="none"/>
      <rect x="0.5" y="0.5" width="55" height="55" fill="none"/>
    </g>
    <path id="Path_account-circle" data-name="Path / account-circle" d="M25.333,42.133a16.874,16.874,0,0,1-14-7.467c.07-4.667,9.333-7.233,14-7.233s13.93,2.567,14,7.233a16.874,16.874,0,0,1-14,7.467M25.333,9a7,7,0,1,1-7,7,7,7,0,0,1,7-7m0-7A23.333,23.333,0,1,0,48.667,25.333,23.333,23.333,0,0,0,25.333,2Z" transform="translate(2.667 2.667)" fill="#fff"/>
  </g>
</svg>
