<svg id="MDI_youtube" data-name="MDI / youtube" xmlns="http://www.w3.org/2000/svg" width="118.459" height="118.459" viewBox="0 0 118.459 118.459">
  <rect id="Boundary" width="118.459" height="118.459" fill="#ff0023" opacity="0"/>
  <path id="Path_youtube" data-name="Path / youtube" d="M44.4,67.347l27.5-18.7-27.5-18.7V67.347m61.262-48.818a75.083,75.083,0,0,1,1.484,11.846c.371,4.988.53,9.29.53,13.03l.318,5.237c0,13.654-.848,23.692-2.332,30.113-1.325,5.611-4.4,9.227-9.168,10.786-2.491.811-7.048,1.372-14.044,1.746-6.889.436-13.2.623-19.025.623l-8.426.374c-22.2,0-36.036-1-41.495-2.743-4.77-1.559-7.843-5.175-9.168-10.786A75.083,75.083,0,0,1,2.848,66.91c-.371-4.988-.53-9.29-.53-13.03L2,48.643c0-13.654.848-23.692,2.332-30.113C5.657,12.918,8.73,9.3,13.5,7.743,15.991,6.933,20.548,6.372,27.543,6c6.889-.436,13.2-.623,19.025-.623L54.995,5C77.2,5,91.031,6,96.49,7.743,101.259,9.3,104.333,12.918,105.658,18.529Z" transform="translate(4.235 10.587)" fill="#ff0023"/>
</svg>
